<mxfile host="app.diagrams.net" modified="2024-03-19T01:41:00.069Z" agent="Mozilla/5.0 (Macintosh; Intel Mac OS X 10_15_7) AppleWebKit/537.36 (KHTML, like Gecko) Chrome/122.0.0.0 Safari/537.36" etag="gBXA4TJMJ-xFoxQL8in4" version="24.0.7" type="device">
  <diagram name="Page-1" id="DUD_6-T85kScICrpKMMz">
    <mxGraphModel dx="1783" dy="590" grid="1" gridSize="10" guides="1" tooltips="1" connect="1" arrows="1" fold="1" page="1" pageScale="1" pageWidth="850" pageHeight="1100" math="0" shadow="0">
      <root>
        <mxCell id="0" />
        <mxCell id="1" parent="0" />
        <mxCell id="Kn0003oJxsBQeWTrvDDb-1" value="&lt;font size=&quot;1&quot; data-font-src=&quot;https://fonts.googleapis.com/css?family=Italianno&quot; face=&quot;Italianno&quot; style=&quot;&quot; color=&quot;#ffffff&quot;&gt;&lt;b style=&quot;font-size: 27px;&quot;&gt;f&lt;/b&gt;&lt;/font&gt;" style="rounded=1;whiteSpace=wrap;html=1;fillColor=#000000;strokeColor=none;fontColor=#FF6666;" parent="1" vertex="1">
          <mxGeometry x="40" y="320" width="60" height="60" as="geometry" />
        </mxCell>
        <mxCell id="Kn0003oJxsBQeWTrvDDb-2" value="&lt;font color=&quot;#ffffff&quot; face=&quot;Italianno&quot; style=&quot;font-size: 27px;&quot;&gt;f&lt;/font&gt;" style="rounded=1;whiteSpace=wrap;html=1;fillColor=#000000;strokeColor=none;fontColor=#FF6666;" parent="1" vertex="1">
          <mxGeometry x="180" y="320" width="60" height="60" as="geometry" />
        </mxCell>
        <mxCell id="Kn0003oJxsBQeWTrvDDb-4" value="&lt;span style=&quot;color: rgb(255, 255, 255); font-family: Italianno; font-size: 27px;&quot;&gt;f&lt;/span&gt;" style="rounded=1;whiteSpace=wrap;html=1;fillColor=#000000;strokeColor=none;fontColor=#FF6666;" parent="1" vertex="1">
          <mxGeometry x="460" y="320" width="60" height="60" as="geometry" />
        </mxCell>
        <mxCell id="Kn0003oJxsBQeWTrvDDb-5" style="edgeStyle=orthogonalEdgeStyle;rounded=0;orthogonalLoop=1;jettySize=auto;html=1;exitX=0.5;exitY=0;exitDx=0;exitDy=0;strokeWidth=3;strokeColor=#6666FF;fontColor=#FF6666;" parent="1" edge="1">
          <mxGeometry relative="1" as="geometry">
            <mxPoint x="69.5" y="439" as="sourcePoint" />
            <mxPoint x="69.5" y="389" as="targetPoint" />
          </mxGeometry>
        </mxCell>
        <mxCell id="Kn0003oJxsBQeWTrvDDb-6" value="&lt;font face=&quot;Ubuntu&quot; style=&quot;font-size: 20px;&quot;&gt;&lt;b&gt;x&lt;sub&gt;1&lt;/sub&gt;&lt;/b&gt;&lt;/font&gt;" style="ellipse;whiteSpace=wrap;html=1;aspect=fixed;fillColor=#00CC00;fontColor=#FFFFFF;" parent="1" vertex="1">
          <mxGeometry x="45" y="450" width="50" height="50" as="geometry" />
        </mxCell>
        <mxCell id="Kn0003oJxsBQeWTrvDDb-7" style="edgeStyle=orthogonalEdgeStyle;rounded=0;orthogonalLoop=1;jettySize=auto;html=1;exitX=0.5;exitY=0;exitDx=0;exitDy=0;strokeWidth=3;strokeColor=#6666FF;fontColor=#FF6666;" parent="1" edge="1">
          <mxGeometry relative="1" as="geometry">
            <mxPoint x="69.5" y="310" as="sourcePoint" />
            <mxPoint x="69.5" y="260" as="targetPoint" />
          </mxGeometry>
        </mxCell>
        <mxCell id="Kn0003oJxsBQeWTrvDDb-8" value="&lt;font face=&quot;Ubuntu&quot;&gt;&lt;span style=&quot;font-size: 20px;&quot;&gt;&lt;b&gt;o&lt;sub&gt;1&lt;/sub&gt;&lt;/b&gt;&lt;/span&gt;&lt;/font&gt;" style="ellipse;whiteSpace=wrap;html=1;aspect=fixed;fillColor=#FF3399;fontColor=#FFFFFF;" parent="1" vertex="1">
          <mxGeometry x="45" y="200" width="50" height="50" as="geometry" />
        </mxCell>
        <mxCell id="Kn0003oJxsBQeWTrvDDb-9" value="&lt;b style=&quot;font-family: Ubuntu; font-size: 20px;&quot;&gt;o&lt;/b&gt;&lt;b style=&quot;font-family: Ubuntu; font-size: 16.6667px;&quot;&gt;&lt;sub&gt;2&lt;/sub&gt;&lt;/b&gt;" style="ellipse;whiteSpace=wrap;html=1;aspect=fixed;fillColor=#FF3399;fontColor=#FFFFFF;" parent="1" vertex="1">
          <mxGeometry x="185" y="200" width="50" height="50" as="geometry" />
        </mxCell>
        <mxCell id="Kn0003oJxsBQeWTrvDDb-11" value="&lt;b style=&quot;font-family: Ubuntu; font-size: 20px;&quot;&gt;o&lt;/b&gt;&lt;b style=&quot;font-family: Ubuntu; font-size: 13.8889px;&quot;&gt;n&lt;/b&gt;" style="ellipse;whiteSpace=wrap;html=1;aspect=fixed;fillColor=#FF3399;fontColor=#FFFFFF;" parent="1" vertex="1">
          <mxGeometry x="465" y="200" width="50" height="50" as="geometry" />
        </mxCell>
        <mxCell id="Kn0003oJxsBQeWTrvDDb-12" style="edgeStyle=orthogonalEdgeStyle;rounded=0;orthogonalLoop=1;jettySize=auto;html=1;exitX=0.5;exitY=0;exitDx=0;exitDy=0;strokeWidth=3;strokeColor=#6666FF;fontColor=#FF6666;" parent="1" edge="1">
          <mxGeometry relative="1" as="geometry">
            <mxPoint x="209.5" y="310" as="sourcePoint" />
            <mxPoint x="209.5" y="260" as="targetPoint" />
          </mxGeometry>
        </mxCell>
        <mxCell id="Kn0003oJxsBQeWTrvDDb-14" style="edgeStyle=orthogonalEdgeStyle;rounded=0;orthogonalLoop=1;jettySize=auto;html=1;exitX=0.5;exitY=0;exitDx=0;exitDy=0;strokeWidth=3;strokeColor=#6666FF;fontColor=#FF6666;" parent="1" edge="1">
          <mxGeometry relative="1" as="geometry">
            <mxPoint x="489.5" y="310" as="sourcePoint" />
            <mxPoint x="489.5" y="260" as="targetPoint" />
          </mxGeometry>
        </mxCell>
        <mxCell id="Kn0003oJxsBQeWTrvDDb-15" value="&lt;font face=&quot;Ubuntu&quot; style=&quot;font-size: 20px;&quot;&gt;&lt;b&gt;x&lt;sub&gt;2&lt;/sub&gt;&lt;/b&gt;&lt;/font&gt;" style="ellipse;whiteSpace=wrap;html=1;aspect=fixed;fillColor=#00CC00;fontColor=#FFFFFF;" parent="1" vertex="1">
          <mxGeometry x="185" y="450" width="50" height="50" as="geometry" />
        </mxCell>
        <mxCell id="Kn0003oJxsBQeWTrvDDb-17" value="&lt;font face=&quot;Ubuntu&quot; style=&quot;&quot;&gt;&lt;b style=&quot;&quot;&gt;&lt;span style=&quot;font-size: 20px;&quot;&gt;x&lt;/span&gt;&lt;span style=&quot;font-size: 16.6667px;&quot;&gt;&lt;sub&gt;n&lt;/sub&gt;&lt;/span&gt;&lt;/b&gt;&lt;/font&gt;" style="ellipse;whiteSpace=wrap;html=1;aspect=fixed;fillColor=#00CC00;fontColor=#FFFFFF;" parent="1" vertex="1">
          <mxGeometry x="465" y="450" width="50" height="50" as="geometry" />
        </mxCell>
        <mxCell id="Kn0003oJxsBQeWTrvDDb-18" style="edgeStyle=orthogonalEdgeStyle;rounded=0;orthogonalLoop=1;jettySize=auto;html=1;exitX=0.5;exitY=0;exitDx=0;exitDy=0;strokeWidth=3;strokeColor=#6666FF;fontColor=#FF6666;" parent="1" edge="1">
          <mxGeometry relative="1" as="geometry">
            <mxPoint x="209.5" y="440" as="sourcePoint" />
            <mxPoint x="209.5" y="390" as="targetPoint" />
          </mxGeometry>
        </mxCell>
        <mxCell id="Kn0003oJxsBQeWTrvDDb-20" style="edgeStyle=orthogonalEdgeStyle;rounded=0;orthogonalLoop=1;jettySize=auto;html=1;exitX=0.5;exitY=0;exitDx=0;exitDy=0;strokeWidth=3;strokeColor=#6666FF;fontColor=#FF6666;" parent="1" edge="1">
          <mxGeometry relative="1" as="geometry">
            <mxPoint x="489.5" y="440" as="sourcePoint" />
            <mxPoint x="489.5" y="390" as="targetPoint" />
          </mxGeometry>
        </mxCell>
        <mxCell id="Kn0003oJxsBQeWTrvDDb-21" style="edgeStyle=orthogonalEdgeStyle;rounded=0;orthogonalLoop=1;jettySize=auto;html=1;exitX=0.5;exitY=0;exitDx=0;exitDy=0;strokeWidth=3;strokeColor=#B266FF;fontColor=#FF6666;" parent="1" edge="1">
          <mxGeometry relative="1" as="geometry">
            <mxPoint x="110" y="349.78" as="sourcePoint" />
            <mxPoint x="170.5" y="349.78" as="targetPoint" />
          </mxGeometry>
        </mxCell>
        <mxCell id="Kn0003oJxsBQeWTrvDDb-22" style="edgeStyle=orthogonalEdgeStyle;rounded=0;orthogonalLoop=1;jettySize=auto;html=1;exitX=0.5;exitY=0;exitDx=0;exitDy=0;strokeWidth=3;strokeColor=#B266FF;fontColor=#FF6666;" parent="1" edge="1">
          <mxGeometry relative="1" as="geometry">
            <mxPoint x="250" y="349.76" as="sourcePoint" />
            <mxPoint x="310.5" y="349.76" as="targetPoint" />
          </mxGeometry>
        </mxCell>
        <mxCell id="Kn0003oJxsBQeWTrvDDb-23" style="edgeStyle=orthogonalEdgeStyle;rounded=0;orthogonalLoop=1;jettySize=auto;html=1;exitX=0.5;exitY=0;exitDx=0;exitDy=0;strokeWidth=3;strokeColor=#B266FF;fontColor=#FF6666;" parent="1" edge="1">
          <mxGeometry relative="1" as="geometry">
            <mxPoint x="394.75" y="349.76" as="sourcePoint" />
            <mxPoint x="455.25" y="349.76" as="targetPoint" />
          </mxGeometry>
        </mxCell>
        <mxCell id="Kn0003oJxsBQeWTrvDDb-24" value="&lt;font data-font-src=&quot;https://fonts.googleapis.com/css?family=Italianno&quot; face=&quot;Italianno&quot; style=&quot;font-size: 25px;&quot;&gt;&lt;span style=&quot;font-size: 25px;&quot;&gt;h&lt;sub style=&quot;font-size: 25px;&quot;&gt;1&lt;/sub&gt;&lt;/span&gt;&lt;/font&gt;" style="text;html=1;align=center;verticalAlign=middle;whiteSpace=wrap;rounded=0;fontSize=25;fontStyle=1" parent="1" vertex="1">
          <mxGeometry x="110" y="320" width="60" height="30" as="geometry" />
        </mxCell>
        <mxCell id="Kn0003oJxsBQeWTrvDDb-25" value="&lt;font style=&quot;font-size: 25px;&quot;&gt;&lt;span style=&quot;font-size: 25px;&quot;&gt;&lt;span style=&quot;font-size: 25px;&quot;&gt;h&lt;/span&gt;&lt;span style=&quot;font-size: 25px;&quot;&gt;&lt;sub style=&quot;font-size: 25px;&quot;&gt;2&lt;/sub&gt;&lt;/span&gt;&lt;/span&gt;&lt;/font&gt;" style="text;html=1;align=center;verticalAlign=middle;whiteSpace=wrap;rounded=0;fontFamily=Italianno;fontSource=https%3A%2F%2Ffonts.googleapis.com%2Fcss%3Ffamily%3DItalianno;fontSize=25;fontStyle=1" parent="1" vertex="1">
          <mxGeometry x="250" y="320" width="60" height="30" as="geometry" />
        </mxCell>
        <mxCell id="Kn0003oJxsBQeWTrvDDb-26" value="&lt;font style=&quot;font-size: 25px;&quot;&gt;&lt;span style=&quot;font-size: 25px;&quot;&gt;&lt;span style=&quot;font-size: 25px;&quot;&gt;hn&lt;/span&gt;&lt;/span&gt;&lt;/font&gt;" style="text;html=1;align=center;verticalAlign=middle;whiteSpace=wrap;rounded=0;fontFamily=Italianno;fontSource=https%3A%2F%2Ffonts.googleapis.com%2Fcss%3Ffamily%3DItalianno;fontSize=25;fontStyle=1" parent="1" vertex="1">
          <mxGeometry x="390" y="320" width="60" height="30" as="geometry" />
        </mxCell>
        <mxCell id="Kn0003oJxsBQeWTrvDDb-27" value="&lt;font face=&quot;Ubuntu&quot; size=&quot;1&quot; style=&quot;&quot; color=&quot;#ffffff&quot;&gt;&lt;b style=&quot;font-size: 23px;&quot;&gt;RNN&lt;/b&gt;&lt;/font&gt;" style="rounded=1;whiteSpace=wrap;html=1;fillColor=#000000;strokeColor=none;fontColor=#FF6666;" parent="1" vertex="1">
          <mxGeometry x="-140" y="320" width="60" height="60" as="geometry" />
        </mxCell>
        <mxCell id="Kn0003oJxsBQeWTrvDDb-28" value="&lt;font face=&quot;Ubuntu&quot; style=&quot;font-size: 20px;&quot;&gt;&lt;b&gt;seq&lt;/b&gt;&lt;/font&gt;" style="ellipse;whiteSpace=wrap;html=1;aspect=fixed;fillColor=#00CC00;fontColor=#FFFFFF;" parent="1" vertex="1">
          <mxGeometry x="-135" y="450" width="50" height="50" as="geometry" />
        </mxCell>
        <mxCell id="Kn0003oJxsBQeWTrvDDb-29" value="&lt;font size=&quot;1&quot; face=&quot;Ubuntu&quot;&gt;&lt;b style=&quot;font-size: 13px;&quot;&gt;output&lt;/b&gt;&lt;/font&gt;" style="ellipse;whiteSpace=wrap;html=1;aspect=fixed;fillColor=#FF3399;fontColor=#FFFFFF;" parent="1" vertex="1">
          <mxGeometry x="-135" y="200" width="50" height="50" as="geometry" />
        </mxCell>
        <mxCell id="Kn0003oJxsBQeWTrvDDb-30" style="edgeStyle=orthogonalEdgeStyle;rounded=0;orthogonalLoop=1;jettySize=auto;html=1;exitX=0.5;exitY=0;exitDx=0;exitDy=0;strokeWidth=3;strokeColor=#6666FF;fontColor=#FF6666;" parent="1" edge="1">
          <mxGeometry relative="1" as="geometry">
            <mxPoint x="-110.25999999999999" y="310" as="sourcePoint" />
            <mxPoint x="-110.25999999999999" y="260" as="targetPoint" />
          </mxGeometry>
        </mxCell>
        <mxCell id="Kn0003oJxsBQeWTrvDDb-31" style="edgeStyle=orthogonalEdgeStyle;rounded=0;orthogonalLoop=1;jettySize=auto;html=1;exitX=0.5;exitY=0;exitDx=0;exitDy=0;strokeWidth=3;strokeColor=#6666FF;fontColor=#FF6666;" parent="1" edge="1">
          <mxGeometry relative="1" as="geometry">
            <mxPoint x="-110.25999999999999" y="440" as="sourcePoint" />
            <mxPoint x="-110.25999999999999" y="390" as="targetPoint" />
          </mxGeometry>
        </mxCell>
        <mxCell id="Kn0003oJxsBQeWTrvDDb-32" style="edgeStyle=orthogonalEdgeStyle;rounded=0;orthogonalLoop=1;jettySize=auto;html=1;exitX=0.25;exitY=0;exitDx=0;exitDy=0;entryX=0.25;entryY=1;entryDx=0;entryDy=0;strokeWidth=3;curved=1;" parent="1" source="Kn0003oJxsBQeWTrvDDb-27" target="Kn0003oJxsBQeWTrvDDb-27" edge="1">
          <mxGeometry relative="1" as="geometry">
            <Array as="points">
              <mxPoint x="-125" y="290" />
              <mxPoint x="-210" y="290" />
              <mxPoint x="-210" y="410" />
              <mxPoint x="-125" y="410" />
            </Array>
          </mxGeometry>
        </mxCell>
        <mxCell id="Kn0003oJxsBQeWTrvDDb-33" value="" style="shape=flexArrow;endArrow=classic;html=1;rounded=0;strokeWidth=3;" parent="1" edge="1">
          <mxGeometry width="50" height="50" relative="1" as="geometry">
            <mxPoint x="-70" y="350" as="sourcePoint" />
            <mxPoint x="30" y="350" as="targetPoint" />
          </mxGeometry>
        </mxCell>
        <mxCell id="Kn0003oJxsBQeWTrvDDb-34" value="&lt;b&gt;&lt;font style=&quot;font-size: 19px;&quot; face=&quot;Ubuntu&quot;&gt;Unfold&lt;/font&gt;&lt;/b&gt;" style="text;html=1;align=center;verticalAlign=middle;whiteSpace=wrap;rounded=0;" parent="1" vertex="1">
          <mxGeometry x="-50" y="290" width="60" height="30" as="geometry" />
        </mxCell>
        <mxCell id="phTSMtF67GbWN2Al6Nvf-5" value="&lt;b&gt;&lt;font style=&quot;font-size: 25px;&quot; face=&quot;Ubuntu&quot;&gt;. . .&lt;/font&gt;&lt;/b&gt;" style="text;html=1;align=center;verticalAlign=middle;whiteSpace=wrap;rounded=0;" vertex="1" parent="1">
          <mxGeometry x="323" y="330" width="60" height="30" as="geometry" />
        </mxCell>
        <mxCell id="phTSMtF67GbWN2Al6Nvf-6" value="&lt;b style=&quot;font-family: Ubuntu; font-size: 20px;&quot;&gt;o&lt;/b&gt;&lt;b style=&quot;font-family: Ubuntu; font-size: 13.8889px;&quot;&gt;&lt;sub&gt;i&lt;/sub&gt;&lt;/b&gt;" style="ellipse;whiteSpace=wrap;html=1;aspect=fixed;fillColor=#FF3399;fontColor=#FFFFFF;" vertex="1" parent="1">
          <mxGeometry x="323" y="200" width="50" height="50" as="geometry" />
        </mxCell>
        <mxCell id="phTSMtF67GbWN2Al6Nvf-7" value="&lt;font face=&quot;Ubuntu&quot; style=&quot;&quot;&gt;&lt;b style=&quot;&quot;&gt;&lt;span style=&quot;font-size: 20px;&quot;&gt;x&lt;/span&gt;&lt;span style=&quot;font-size: 13.8889px;&quot;&gt;&lt;sub&gt;i&lt;/sub&gt;&lt;/span&gt;&lt;/b&gt;&lt;/font&gt;" style="ellipse;whiteSpace=wrap;html=1;aspect=fixed;fillColor=#00CC00;fontColor=#FFFFFF;" vertex="1" parent="1">
          <mxGeometry x="323" y="450" width="50" height="50" as="geometry" />
        </mxCell>
      </root>
    </mxGraphModel>
  </diagram>
</mxfile>
